<?xml version="1.0" ?><svg id="Icons" viewBox="0 0 48 48" xmlns="http://www.w3.org/2000/svg"><defs><style>.cls-1,.cls-4{fill:#45413c;}.cls-1{opacity:0.15;}.cls-2{fill:#a86c4d;}.cls-11,.cls-12,.cls-2,.cls-3,.cls-4,.cls-7{stroke:#45413c;stroke-linecap:round;stroke-linejoin:round;}.cls-3{fill:#ffcebf;}.cls-5{fill:#ff6242;}.cls-6{fill:#ffa694;}.cls-7{fill:none;}.cls-8{fill:#ffb59e;}.cls-9{fill:#b89558;}.cls-10{fill:#debb7e;}.cls-11{fill:#656769;}.cls-12,.cls-14{fill:#daedf7;}.cls-13{fill:#f0d5a8;}.cls-15{fill:#fff;}.cls-16{fill:#00b8f0;}.cls-17{fill:#4acfff;}</style></defs><title/><ellipse class="cls-1" cx="24" cy="44.5" data-name="&lt;Ellipse&gt;" id="_Ellipse_" rx="12.5" ry="1.5"/><g data-name="&lt;Group&gt;" id="_Group_"><path class="cls-2" d="M24,5A14.59,14.59,0,0,0,9.41,19.6v7.64H38.59V19.6A14.59,14.59,0,0,0,24,5Z"/><path class="cls-3" d="M40.15,26.13a2.73,2.73,0,0,0-2.07-2.3l-.87-.24A3,3,0,0,1,35,20.66V17.59a2.77,2.77,0,0,0-2.08-2.68A23,23,0,0,1,24,16.52a23,23,0,0,1-8.9-1.61A2.77,2.77,0,0,0,13,17.59v3.07a3,3,0,0,1-2.23,2.93l-.87.24a2.73,2.73,0,0,0-2.07,2.3,2.69,2.69,0,0,0,2.68,2.92h.17a13.45,13.45,0,0,0,26.6,0h.17A2.69,2.69,0,0,0,40.15,26.13Z"/><path class="cls-4" d="M15.93,25.81a1.15,1.15,0,1,0,1.14-1.15A1.15,1.15,0,0,0,15.93,25.81Z" data-name="&lt;Path&gt;" id="_Path_"/><path class="cls-4" d="M32.07,25.81a1.15,1.15,0,1,1-1.14-1.15A1.15,1.15,0,0,1,32.07,25.81Z" data-name="&lt;Path&gt;" id="_Path_2"/><g data-name="&lt;Group&gt;" id="_Group_2"><g data-name="&lt;Group&gt;" id="_Group_3"><path class="cls-5" d="M20.31,33.09a.61.61,0,0,0-.44.2.57.57,0,0,0-.13.47,4.32,4.32,0,0,0,8.52,0,.57.57,0,0,0-.13-.47.61.61,0,0,0-.44-.2Z" data-name="&lt;Path&gt;" id="_Path_3"/><path class="cls-6" d="M24,34.87a5.3,5.3,0,0,0-3.29,1,4.38,4.38,0,0,0,6.58,0A5.3,5.3,0,0,0,24,34.87Z" data-name="&lt;Path&gt;" id="_Path_4"/></g></g><g data-name="&lt;Group&gt;" id="_Group_4"><path class="cls-7" d="M20.31,33.09a.61.61,0,0,0-.44.2.57.57,0,0,0-.13.47,4.32,4.32,0,0,0,8.52,0,.57.57,0,0,0-.13-.47.61.61,0,0,0-.44-.2Z" data-name="&lt;Path&gt;" id="_Path_5"/></g><ellipse class="cls-8" cx="15.18" cy="30.69" data-name="&lt;Ellipse&gt;" id="_Ellipse_2" rx="1.49" ry="0.89"/><ellipse class="cls-8" cx="32.82" cy="30.69" data-name="&lt;Ellipse&gt;" id="_Ellipse_3" rx="1.49" ry="0.89"/></g><path class="cls-9" d="M43.5,15.27c0,3.39-8.73,6.47-19.5,6.47S4.5,18.66,4.5,15.27s8.73-4.69,19.5-4.69S43.5,11.88,43.5,15.27Z" data-name="&lt;Path&gt;" id="_Path_6"/><path class="cls-10" d="M24,13.58c9.08,0,16.69.93,18.86,3.25a2.57,2.57,0,0,0,.64-1.56c0-3.39-8.73-4.69-19.5-4.69S4.5,11.88,4.5,15.27a2.57,2.57,0,0,0,.64,1.56C7.31,14.51,14.92,13.58,24,13.58Z" data-name="&lt;Path&gt;" id="_Path_7"/><path class="cls-7" d="M43.5,15.27c0,3.39-8.73,6.47-19.5,6.47S4.5,18.66,4.5,15.27s8.73-4.69,19.5-4.69S43.5,11.88,43.5,15.27Z" data-name="&lt;Path&gt;" id="_Path_8"/><path class="cls-9" d="M36.83,15s-.61-8.14-6-11.39a3.81,3.81,0,0,0-3.66.1,7.26,7.26,0,0,1-6.24,0,3.81,3.81,0,0,0-3.66-.1c-5.44,3.25-6,11.39-6,11.39S14.75,18,24,18,36.83,15,36.83,15Z" data-name="&lt;Path&gt;" id="_Path_9"/><path class="cls-10" d="M17.22,6.44a3.78,3.78,0,0,1,3.66.09,7.26,7.26,0,0,0,6.24,0,3.78,3.78,0,0,1,3.66-.09c3.5,2.09,5,6.18,5.62,8.85a3.82,3.82,0,0,0,.43-.3s-.61-8.14-6-11.39a3.81,3.81,0,0,0-3.66.1,7.26,7.26,0,0,1-6.24,0,3.81,3.81,0,0,0-3.66-.1c-5.44,3.25-6,11.39-6,11.39a3.82,3.82,0,0,0,.43.3C12.23,12.62,13.72,8.53,17.22,6.44Z" data-name="&lt;Path&gt;" id="_Path_10"/><path class="cls-7" d="M36.83,15s-.61-8.14-6-11.39a3.81,3.81,0,0,0-3.66.1,7.26,7.26,0,0,1-6.24,0,3.81,3.81,0,0,0-3.66-.1c-5.44,3.25-6,11.39-6,11.39S14.75,18,24,18,36.83,15,36.83,15Z" data-name="&lt;Path&gt;" id="_Path_11"/><path class="cls-11" d="M24,13.65a32.61,32.61,0,0,1-12.14-2.18A18.93,18.93,0,0,0,11.17,15S14.75,18,24,18s12.83-3,12.83-3a18.93,18.93,0,0,0-.69-3.52A32.81,32.81,0,0,1,24,13.65Z" data-name="&lt;Path&gt;" id="_Path_12"/><g data-name="&lt;Group&gt;" id="_Group_5"><rect class="cls-12" data-name="&lt;Rectangle&gt;" height="3.66" id="_Rectangle_" transform="translate(-12.31 28.67) rotate(-38.03)" width="1.91" x="34.49" y="30.36"/><rect class="cls-10" data-name="&lt;Rectangle&gt;" height="6.26" id="_Rectangle_2" rx="0.86" ry="0.86" transform="translate(-13.84 31.03) rotate(-38.03)" width="2.81" x="36.7" y="32.47"/><path class="cls-13" d="M40.61,36.52,37.81,33a.85.85,0,0,0-1.2-.15l-.86.67a.78.78,0,0,0-.24.33A.85.85,0,0,1,36.7,34l2.8,3.57a.85.85,0,0,1,.09.88h0l.86-.67A.87.87,0,0,0,40.61,36.52Z" data-name="&lt;Path&gt;" id="_Path_13"/><rect class="cls-7" data-name="&lt;Rectangle&gt;" height="6.26" id="_Rectangle_3" rx="0.86" ry="0.86" transform="translate(-13.84 31.03) rotate(-38.03)" width="2.81" x="36.7" y="32.47"/><circle class="cls-14" cx="30.63" cy="26.04" data-name="&lt;Path&gt;" id="_Path_14" r="6.51"/><path class="cls-15" d="M26.62,22.58a6.49,6.49,0,0,1,10.46,4.31,6.51,6.51,0,1,0-12.9,0A6.44,6.44,0,0,1,26.62,22.58Z" data-name="&lt;Path&gt;" id="_Path_15"/><circle class="cls-7" cx="30.63" cy="26.04" data-name="&lt;Path&gt;" id="_Path_16" r="6.51"/><circle class="cls-16" cx="30.63" cy="26.04" data-name="&lt;Path&gt;" id="_Path_17" r="4.61"/><path class="cls-17" d="M27.37,29.31l6.52-6.53A4.61,4.61,0,0,0,27,28.88,5,5,0,0,0,27.37,29.31Z"/><circle class="cls-7" cx="30.63" cy="26.04" data-name="&lt;Path&gt;" id="_Path_18" r="4.61"/></g></svg>